<svg xmlns="http://www.w3.org/2000/svg" version="1.1" xmlns:xlink="http://www.w3.org/1999/xlink" xmlns:svgjs="http://svgjs.com/svgjs" width="1440" height="1440" preserveAspectRatio="none" viewBox="0 0 1440 1440"><g mask="url(&quot;#SvgjsMask1258&quot;)" fill="none"><rect width="1440" height="1440" x="0" y="0" fill="url(#SvgjsLinearGradient1259)"></rect><path d="M1440 0L1168.22 0L1440 432.99z" fill="rgba(255, 255, 255, .1)"></path><path d="M1168.22 0L1440 432.99L1440 713.37L533.24 0z" fill="rgba(255, 255, 255, .075)"></path><path d="M533.24 0L1440 713.37L1440 1047.96L235.91000000000003 0z" fill="rgba(255, 255, 255, .05)"></path><path d="M235.91000000000008 0L1440 1047.96L1440 1069.21L118.75000000000009 0z" fill="rgba(255, 255, 255, .025)"></path><path d="M0 1440L23.12 1440L0 950.9100000000001z" fill="rgba(0, 0, 0, .1)"></path><path d="M0 950.9100000000001L23.12 1440L380.25 1440L0 555.1300000000001z" fill="rgba(0, 0, 0, .075)"></path><path d="M0 555.1300000000001L380.25 1440L925.45 1440L0 228.6300000000001z" fill="rgba(0, 0, 0, .05)"></path><path d="M0 228.6300000000001L925.45 1440L1282.73 1440L0 122.05000000000011z" fill="rgba(0, 0, 0, .025)"></path></g><defs><mask id="SvgjsMask1258"><rect width="1440" height="1440" fill="#ffffff"></rect></mask><linearGradient x1="50%" y1="100%" x2="50%" y2="0%" gradientUnits="userSpaceOnUse" id="SvgjsLinearGradient1259"><stop stop-color="rgba(160, 33, 33, 1)" offset="0"></stop><stop stop-color="rgba(250, 250, 250, 1)" offset="1"></stop></linearGradient></defs></svg>